<?xml version="1.0" standalone="no"?>
<!DOCTYPE svg PUBLIC "-//W3C//DTD SVG 20010904//EN"
 "http://www.w3.org/TR/2001/REC-SVG-20010904/DTD/svg10.dtd">
<svg version="1.0" xmlns="http://www.w3.org/2000/svg"
 width="500.000000pt" height="177.000000pt" viewBox="0 0 500.000000 177.000000"
 preserveAspectRatio="xMidYMid meet">

<g transform="translate(0.000000,177.000000) scale(0.100000,-0.100000)"
fill="#000000" stroke="none">
<path d="M789 1695 c-258 -41 -465 -179 -598 -400 -48 -79 -86 -193 -105 -313
-15 -93 -15 -111 -1 -200 32 -202 108 -355 240 -485 130 -129 278 -201 476
-233 92 -14 108 -14 205 1 197 31 331 95 468 224 107 102 177 217 222 368 24
77 27 105 27 223 0 118 -3 146 -27 223 -47 157 -115 267 -234 379 -126 118
-267 185 -455 212 -120 18 -105 18 -218 1z m285 -155 c239 -61 427 -248 493
-490 24 -88 24 -242 0 -337 -63 -244 -265 -441 -512 -499 -94 -22 -276 -15
-358 15 -162 57 -304 169 -381 300 -118 202 -127 448 -25 656 84 171 262 315
444 359 90 22 246 20 339 -4z"/>
<path d="M761 1394 c-178 -48 -329 -201 -376 -379 -17 -68 -19 -189 -4 -255
20 -87 77 -189 143 -254 106 -104 232 -156 378 -156 151 0 268 49 375 156 88
87 137 180 155 297 40 263 -132 523 -393 592 -69 19 -208 18 -278 -1z m265
-139 c105 -31 224 -149 254 -253 57 -191 -26 -384 -205 -475 -49 -25 -75 -31
-146 -35 -106 -5 -173 12 -249 65 -268 188 -206 601 105 699 55 17 181 17 241
-1z"/>
<path d="M855 1111 c-110 -28 -185 -123 -185 -233 1 -130 102 -228 237 -228
207 0 308 258 156 402 -50 48 -145 75 -208 59z"/>
<path d="M2000 1040 l0 -270 320 0 320 0 0 40 0 40 -267 2 -268 3 -3 78 -3 77
181 0 180 0 0 40 0 40 -180 0 -180 0 0 70 0 70 260 0 260 0 0 40 0 40 -310 0
-310 0 0 -270z"/>
<path d="M2720 1040 l0 -271 48 3 47 3 3 103 3 102 153 0 153 0 85 -103 85
-103 57 -3 c31 -1 56 1 56 4 0 3 -34 49 -75 100 -41 52 -75 99 -75 104 0 5 16
12 35 15 105 20 150 161 78 246 -53 63 -60 65 -370 68 l-283 3 0 -271z m529
179 c17 -6 36 -19 41 -29 17 -32 12 -85 -11 -106 -19 -17 -41 -19 -240 -22
l-219 -3 0 85 0 86 199 0 c119 0 211 -4 230 -11z"/>
<path d="M3482 1043 l3 -268 50 0 50 0 3 102 3 102 232 3 c219 3 234 4 274 26
90 47 107 176 35 246 -52 49 -99 56 -389 56 l-263 0 2 -267z m562 158 c32 -30
34 -78 7 -112 -19 -24 -22 -24 -240 -27 l-221 -3 0 86 0 86 214 -3 c211 -3
215 -3 240 -27z"/>
</g>
</svg>
