<svg xmlns="http://www.w3.org/2000/svg" width="500" height="177" viewBox="0 0 500 177" version="1.1"><path d="M 73.965 7.873 C 41.675 14.950, 18.029 37.928, 9.429 70.584 C 7.001 79.803, 6.935 98.043, 9.297 106.827 C 18.004 139.208, 39.608 160.966, 71.664 169.640 C 81.506 172.303, 99.741 172.085, 110.500 169.175 C 147.697 159.116, 173 126.657, 173 89 C 173 63.393, 160.820 38.644, 140.719 23.410 C 133.249 17.748, 118.937 10.833, 110 8.567 C 99.701 5.955, 84.086 5.654, 73.965 7.873 M 76.410 22.418 C 51.792 28.041, 33.715 44.367, 25.386 68.500 C 22.945 75.572, 22.625 77.950, 22.625 89 C 22.625 100.050, 22.945 102.428, 25.386 109.500 C 29.089 120.229, 33.064 126.926, 40.354 134.719 C 51.166 146.277, 62.128 152.344, 78.017 155.564 C 92.638 158.526, 105.515 156.641, 120.933 149.281 C 128.828 145.512, 131.680 143.451, 138.433 136.633 C 151.960 122.976, 158 108.274, 158 89 C 158 58.267, 139.376 33.197, 109.554 23.788 C 101.522 21.253, 84.575 20.553, 76.410 22.418 M 79.500 36.170 C 61.931 39.496, 44.465 55.306, 38.892 72.928 C 36.197 81.448, 35.981 95.100, 38.409 103.500 C 45.714 128.779, 71.773 145.881, 97.384 142.203 C 119.595 139.013, 138.475 121.592, 142.903 100.201 C 150.713 62.472, 117.539 28.969, 79.500 36.170 M 199.234 72.750 L 199.500 99.500 232 99.500 L 264.500 99.500 264.500 95.500 L 264.500 91.500 237.250 91.234 L 210 90.968 210 83.506 L 210 76.045 228.250 75.773 L 246.500 75.500 246.500 71.500 L 246.500 67.500 228.203 67.227 L 209.906 66.955 210.203 60.727 L 210.500 54.500 236 54.500 L 261.500 54.500 261.807 50.250 L 262.115 46 230.541 46 L 198.967 46 199.234 72.750 M 271 73 L 271 100 276.465 100 L 281.930 100 282.215 89.757 L 282.500 79.513 297.483 79.489 C 309.714 79.470, 312.744 79.750, 313.983 81.014 C 314.817 81.866, 318.650 86.486, 322.500 91.281 L 329.500 99.999 335.808 99.999 L 342.117 100 337.669 94.250 C 335.222 91.088, 331.620 86.491, 329.664 84.035 L 326.107 79.571 331.303 77.035 C 338.671 73.441, 341.296 69.200, 340.774 61.737 C 340.286 54.769, 338.062 51.358, 331.980 48.250 C 327.720 46.073, 326.653 46, 299.288 46 L 271 46 271 73 M 348 73 L 348 100 353.500 100 L 359 100 359 89.750 L 359 79.500 381.429 79.390 C 402.970 79.285, 404.047 79.186, 408.627 76.890 C 414.712 73.841, 417.157 70.423, 417.762 64.122 C 418.415 57.329, 414.887 51.092, 408.698 48.096 C 404.616 46.120, 402.755 46, 376.184 46 L 348 46 348 73 M 79.500 51.338 C 72.529 53.660, 67.380 56.778, 62.573 61.585 C 50.738 73.420, 47.910 91.305, 55.482 106.437 C 60.191 115.850, 68.466 122.828, 78.646 125.972 C 87.014 128.557, 94.447 128.544, 102.199 125.933 C 113.230 122.217, 121.097 115.284, 125.899 105.046 C 128.183 100.176, 128.500 98.221, 128.500 89 C 128.500 79.701, 128.193 77.846, 125.820 72.782 C 122.084 64.811, 115.299 57.914, 107.340 53.996 C 101.749 51.243, 99.364 50.675, 92.106 50.368 C 86.656 50.138, 82.033 50.493, 79.500 51.338 M 282 62.707 L 282 71 302.032 71 C 324.149 71, 328.416 70.173, 329.547 65.668 C 330.551 61.667, 329.677 58.833, 326.774 56.673 C 324.252 54.797, 322.479 54.637, 303.024 54.530 L 282 54.415 282 62.707 M 359 62.704 L 359 71 379.032 71 C 401.290 71, 405.413 70.187, 406.573 65.566 C 407.523 61.781, 406.306 58.247, 403.398 56.341 C 401.213 54.910, 397.695 54.639, 379.914 54.533 L 359 54.409 359 62.704 M 81.500 66.804 C 71.695 71.429, 66.984 78.730, 67.023 89.239 C 67.095 108.559, 89.270 119.873, 104 108.106 C 115.908 98.592, 117.416 82.913, 107.414 72.614 C 102.568 67.625, 98.607 65.806, 91.545 65.327 C 87.044 65.022, 84.478 65.399, 81.500 66.804" stroke="none" fill="#ec1c2c" fill-rule="evenodd"/><path d="M 199 123.500 C 199 131.900, 199.029 132, 201.500 132 C 203.611 132, 204 131.533, 204 129 C 204 125.168, 205.618 125.165, 207.797 128.994 C 209.052 131.200, 210.239 131.989, 212.309 131.994 C 215.206 132, 215.211 131.274, 212.340 127.912 C 211.181 126.555, 211.275 126.061, 212.992 124.507 C 214.096 123.508, 215 121.660, 215 120.402 C 215 116.913, 211.380 115, 204.777 115 L 199 115 199 123.500 M 216.744 115.750 C 216.539 116.162, 216.399 119.875, 216.435 124 L 216.500 131.500 223.832 131.795 C 230.431 132.061, 231.130 131.911, 230.823 130.295 C 230.562 128.920, 229.359 128.428, 225.677 128.193 C 220.102 127.836, 219.592 125.506, 225.084 125.490 C 229.123 125.478, 231.102 124.428, 230.423 122.659 C 230.129 121.893, 228.278 121.405, 225.800 121.441 C 223.337 121.476, 221.499 120.995, 221.251 120.250 C 220.953 119.359, 222.294 119, 225.917 119 C 230.333 119, 231 118.738, 231 117 C 231 115.192, 230.333 115, 224.059 115 C 220.241 115, 216.950 115.338, 216.744 115.750 M 233.536 116.960 C 230.766 120.021, 232.196 123.597, 236.750 124.998 C 243.672 127.128, 243.692 127.140, 241.500 127.987 C 240.340 128.434, 238.167 128.214, 236.325 127.462 C 233.612 126.353, 233.067 126.383, 232.575 127.664 C 231.547 130.345, 231.945 130.891, 235.689 131.925 C 242.194 133.721, 247 131.587, 247 126.903 C 247 124.757, 246.270 123.674, 244.050 122.526 C 242.427 121.687, 240.177 121, 239.050 121 C 237.922 121, 237 120.492, 237 119.872 C 237 119.130, 238.281 118.948, 240.750 119.340 C 242.813 119.668, 245.175 119.492, 246 118.949 C 247.297 118.096, 247.237 117.761, 245.559 116.481 C 242.686 114.289, 235.702 114.567, 233.536 116.960 M 250.646 117.452 C 245.961 121.794, 247.433 129.030, 253.518 131.572 C 258.817 133.786, 264.329 132.025, 266.837 127.316 C 268.712 123.794, 268.197 121.043, 265.077 117.923 C 261.163 114.009, 254.593 113.794, 250.646 117.452 M 269 121.066 C 269 128.494, 270 130.515, 274.392 131.964 C 282.111 134.512, 287 130.182, 287 120.799 C 287 114.938, 286.968 114.871, 284.290 115.184 C 281.711 115.485, 281.592 115.741, 281.810 120.500 C 282.052 125.760, 281.466 127.369, 279 128.215 C 275.537 129.403, 274 127.174, 274 120.965 C 274 115.269, 273.887 115, 271.500 115 C 269.108 115, 269 115.262, 269 121.066 M 288 123.500 C 288 131.900, 288.029 132, 290.500 132 C 292.611 132, 293 131.533, 293 129 C 293 127.350, 293.425 126, 293.943 126 C 294.462 126, 295.684 127.350, 296.659 129 C 297.962 131.205, 299.178 132, 301.251 132 C 303.734 132, 303.946 131.768, 303.030 130.056 C 302.457 128.986, 301.534 127.830, 300.977 127.486 C 300.361 127.105, 300.755 125.856, 301.982 124.295 C 304.518 121.072, 304.522 119.522, 302 117 C 300.444 115.444, 298.667 115, 294 115 L 288 115 288 123.500 M 307.630 117.250 C 302.129 122.238, 304.055 129.543, 311.522 132.007 C 314.456 132.976, 315.599 132.868, 318.701 131.330 C 320.731 130.323, 322.553 128.975, 322.751 128.334 C 323.266 126.664, 319.907 126.224, 317.186 127.605 C 312.781 129.840, 308.103 126.402, 309.511 121.965 C 310.294 119.498, 314.685 118.322, 317.213 119.901 C 319.152 121.112, 323 120.544, 323 119.048 C 323 117.320, 317.894 115, 314.091 115 C 311.366 115, 309.329 115.709, 307.630 117.250 M 324 123.500 L 324 132 331 132 C 337.333 132, 338 131.810, 338 130 C 338 128.296, 337.333 128, 333.500 128 C 330.423 128, 329 127.580, 329 126.670 C 329 125.895, 330.146 125.326, 331.750 125.307 C 337.109 125.241, 338 124.983, 338 123.500 C 338 121.905, 337.764 121.820, 332.833 121.625 C 327.563 121.417, 328.100 119, 333.417 119 C 337.333 119, 338 118.709, 338 117 C 338 115.190, 337.333 115, 331 115 L 324 115 324 123.500 M 347.575 116.918 C 344.585 120.221, 345.895 123.302, 351 124.976 C 356.605 126.814, 356.749 126.919, 355.077 127.952 C 354.310 128.427, 352.425 128.347, 350.770 127.770 C 348.454 126.963, 347.501 127.070, 346.297 128.274 C 344.923 129.648, 345.008 129.934, 347.129 131.069 C 350.228 132.727, 357.466 132.688, 359.498 131.002 C 360.494 130.175, 360.988 128.500, 360.801 126.585 C 360.536 123.868, 359.934 123.321, 355.755 122 C 350.099 120.212, 349.451 118.498, 354.750 119.340 C 356.813 119.668, 359.175 119.492, 360 118.949 C 361.297 118.096, 361.237 117.761, 359.559 116.481 C 356.715 114.311, 349.702 114.566, 347.575 116.918 M 364.923 117.923 C 357.933 124.913, 365.263 135.036, 375.166 132.068 C 385.864 128.863, 383.526 115, 372.287 115 C 368.712 115, 367.276 115.570, 364.923 117.923 M 383 123.500 L 383 132 389.500 132 C 395.333 132, 396 131.795, 396 130 C 396 128.333, 395.333 128, 392 128 L 388 128 388 121.500 C 388 115.233, 387.910 115, 385.500 115 C 383.029 115, 383 115.100, 383 123.500 M 396 121.066 C 396 124.402, 396.447 127.966, 396.992 128.986 C 398.246 131.328, 404.254 133.363, 407.234 132.454 C 411.972 131.010, 413 129.119, 413 121.845 C 413 115.667, 412.805 115, 411 115 C 409.256 115, 408.998 115.672, 408.985 120.250 C 408.968 125.849, 408.389 127.395, 406 128.215 C 402.537 129.403, 401 127.174, 401 120.965 C 401 115.269, 400.887 115, 398.500 115 C 396.108 115, 396 115.262, 396 121.066 M 415 116.958 C 415 118.469, 415.650 119, 417.500 119 C 419.910 119, 420 119.233, 420 125.500 C 420 131.767, 420.090 132, 422.500 132 C 424.908 132, 425 131.762, 425 125.566 C 425 119.291, 425.068 119.125, 427.750 118.816 C 429.387 118.628, 430.500 117.893, 430.500 117 C 430.500 115.821, 428.842 115.438, 422.750 115.208 C 415.518 114.935, 415 115.052, 415 116.958 M 432 123.430 C 432 131.804, 432.055 132, 434.395 132 C 436.739 132, 436.786 131.827, 436.645 123.750 C 436.509 116.007, 436.362 115.480, 434.250 115.180 C 432.067 114.870, 432 115.115, 432 123.430 M 440.646 117.452 C 435.961 121.794, 437.433 129.030, 443.518 131.572 C 448.014 133.450, 452.470 132.419, 455.520 128.794 C 458.807 124.888, 458.670 121.516, 455.077 117.923 C 451.163 114.009, 444.593 113.794, 440.646 117.452 M 459 123.500 C 459 131.900, 459.029 132, 461.500 132 C 463.810 132, 464.003 131.640, 464.038 127.250 L 464.077 122.500 468.288 127.258 C 470.973 130.291, 473.316 132.013, 474.750 132.008 C 476.906 132, 477 131.646, 477 123.500 C 477 115.100, 476.971 115, 474.500 115 C 472.185 115, 472 115.352, 471.994 119.750 L 471.987 124.500 467.916 119.750 C 465.140 116.511, 463.074 115, 461.422 115 C 459.049 115, 459 115.173, 459 123.500 M 481 117 C 479.900 118.100, 479 119.605, 479 120.345 C 479 122.318, 482.038 124.711, 485.755 125.665 C 489.665 126.668, 490.012 128.639, 486.196 128.165 C 480.346 127.437, 479.553 127.547, 479.230 129.134 C 479.009 130.221, 479.971 131.143, 482.098 131.884 C 486.760 133.509, 489.395 133.264, 492.365 130.927 C 497.080 127.219, 494.925 122.805, 487.750 121.473 C 485.688 121.091, 484 120.377, 484 119.889 C 484 118.701, 487.677 118.757, 489.961 119.979 C 491.308 120.700, 492.137 120.540, 493.107 119.371 C 496.391 115.414, 484.847 113.153, 481 117 M 204 120.434 C 204 121.517, 204.951 122, 207.083 122 C 210.909 122, 210.566 119.644, 206.673 119.184 C 204.779 118.959, 204 119.323, 204 120.434 M 254.050 120.440 C 252.237 122.625, 253.163 127.161, 255.605 128.056 C 260.270 129.767, 264.992 124.105, 261.954 120.445 C 260.409 118.583, 255.593 118.580, 254.050 120.440 M 293 120.434 C 293 121.517, 293.951 122, 296.083 122 C 299.909 122, 299.566 119.644, 295.673 119.184 C 293.779 118.959, 293 119.323, 293 120.434 M 368.200 120.200 C 366.184 122.216, 366.821 125.837, 369.500 127.592 C 371.816 129.109, 372.184 129.109, 374.500 127.592 C 377.179 125.837, 377.816 122.216, 375.800 120.200 C 374.253 118.653, 369.747 118.653, 368.200 120.200 M 444.200 120.200 C 442.098 122.302, 442.734 126.965, 445.250 127.902 C 450.058 129.692, 454.201 125.932, 452.217 121.578 C 450.931 118.754, 446.421 117.979, 444.200 120.200" stroke="none" fill="#fcfcfc" fill-rule="evenodd"/></svg>